<?xml version="1.0" encoding="UTF-8" standalone="yes"?><svg xmlns="http://www.w3.org/2000/svg" viewBox="0 0 120 120" version="1.2" baseProfile="tiny-ps"><title>Callable Logo</title><g id="Layer_4"><path d="M3.13,66.42c.32.54.91.63,1.48.76-.4-.53-.86-.78-1.48-.76Z" fill="#fffcf2" stroke-width="0"></path><path d="M4.62,67.19h-.02s.02,0,.02,0Z" fill="#fffcf2" stroke-width="0"></path><path d="M116.87,50.93h-.47c.15.02.32.03.47,0Z" fill="#fffcf2" stroke-width="0"></path><path d="M90.58,106.54c.34-.53.15-1.1,0-1.65-.28.6-.3,1.11,0,1.65Z" fill="#fffcf2" stroke-width="0"></path><path d="M25.1,13.54c.07.13.14.27.22.41-.04-.15-.11-.29-.22-.41Z" fill="#fffcf2" stroke-width="0"></path><path d="M31.22,107.63c.62.08,1.02-.33,1.43-.7-.65,0-1.11.21-1.43.7Z" fill="#fffcf2" stroke-width="0"></path><path d="M32.68,106.94h0s0-.01-.01,0h.01Z" fill="#fffcf2" stroke-width="0"></path><path d="M82.17,10.7c-.08.11-.17.24-.26.37.11-.11.21-.22.26-.37Z" fill="#fffcf2" stroke-width="0"></path><path d="M106.48,89.11c.1-.62-.32-1.07-.68-1.52-.01.66.18,1.14.68,1.52Z" fill="#fffcf2" stroke-width="0"></path><path d="M105.8,87.58h-.01s0,.01.01.02h0v-.02Z" fill="#fffcf2" stroke-width="0"></path><path d="M8.01,30.1c.11.09.24.2.37.29-.11-.12-.23-.23-.37-.29Z" fill="#fffcf2" stroke-width="0"></path><path d="M63.3,3.14c-.6.2-.8.76-1.03,1.28.6-.29.93-.68,1.03-1.28Z" fill="#fffcf2" stroke-width="0"></path><path d="M62.24,4.43h0v-.02h-.01v.02Z" fill="#fffcf2" stroke-width="0"></path><path d="M56.27,116.66c.03-.14.05-.29.09-.46-.05.15-.1.3-.09.46Z" fill="#fffcf2" stroke-width="0"></path><path d="M110.32,39.38c-.43-.45-1.01-.38-1.55-.36.51.41.99.53,1.55.36Z" fill="#fffcf2" stroke-width="0"></path><path d="M9.96,83.19c.13-.03.28-.08.43-.12-.15.01-.3.04-.43.12Z" fill="#fffcf2" stroke-width="0"></path><path d="M86.35,67.79l-.65.59c-1.01-.9.38-1-.7-1.68-1.2.58-1.46-1.5-2.22-1.3.08-.07-.36-.51-.07-.76-.59.37-.58-.32-.97-.45-.23.04-.05.22-.12.43l-.82-.42c-.11-.39.09-.74.41-.54-1.55-1.74-9.35-9.72-11.41-11.16-.1.59.7.86.38,1.64-.78-.12-.61-.77-1.14-.62.61-1.04-.88-1.18-.45-2.4l-.59.37.03-.52c-2.62-1.45-.72-.2-2.51-2.05-1.17-.92-2.32-.72-2.7-1.53.09.09.05.61-.35.48.35-.48-1.04-.38-.78-.95-.33-.2-1.18-1.09-1.41-.21.12-.43-.58-1.29.13-1.11-.26-.26-.45-.6-.76-.64l.2.49c-1-.75-1.08-1.67-2.17-1.68l.13.54c-.59-.47-1.09-.84-.76-1.62l.73.34c-.92-.82-1.51-1.28-2.55-1.66l.26.26c-1.5-.3-7.01-4.43-8.58-4.52v.83l-1.12-.32c.09.09,1.72-1.14,1.66-.92-1.68-1.46-10.55-8.91-11.79-10.61-.38-.82.54-.83.62-.89-.9-.51-.76.18-1.36-.42-.1-.24.36-.33.52-.3-.33-.2-.45-.6-.65-.4.2.48-.47.91-.65,1.41l-.77-.79.36-.33c-.17-.17-1.35.55-1.98-.37-1.21-1.39-2.79-2.6-4.08-3.92.22-.2.62-.07,1.02.08-.17-.17-.5-.38-.53-.68-.01.67-.8-.27-.68.12-1.79-.04-2.35-2.01-3.77-2.22-.79.72-14.15,11.73-15.01,12.66-.26-.26-.51-.53-.52-.68-.13.28.32.88.71,1.01l.5-.46c.82.42-.12.43.55.99-.34.43-1.01-.01-1.57-.45.42.48.62,1.2,1.22.92.28.57-.5.46-.13,1.11.49.23,1.35.27,1.55.91l-.08.07c.66,1.38,2.17.85,2.75,2.14l-.23.04c.12.54,1.09.84,1.47,1.65-.1-.24.02-.67.43-.39.47.9,1.18,1.09,1.41,1.87l.86.05c2.38,2.32,12.59,10.6,15.11,12.78l-.15-.02c3.93,3.23,11.62,10.29,16,13.28.24.95,1.15,1.61,1.67,2.28-.2-.48.17-.65.43-.39,1.87,1.78.38-.15,2.46,1.43,2.55,1.66,10.67,9.84,12.35,11.98,1.59.39,2.51,2.03,3.88,2.61l-.23.04c1.32.8,7.13,7.1,8.62,8.08l-.1-.24c1.46.67.73,1.16,1.43,2.17.48-.76,1.78-.24,2.2.04l-.14.13c.65.4,2.43.99,3.43,1.74l-.36.33c1.12.32,2.41,1.79,3,2.26,1.13,1.29,2.5,3.7,4.62,4.76l.16,2.01.25.04s12.93-10.65,13.1-15.29l.36-.33-.48-.36c-.37-.65-.99-.47-.63-.79l.68.71c-.43-.59.11-.43.49-.46-.18-.24-.37-.48-.45-.75-.23.04-.05.22-.04.37-.4-.13-1.1-.16-1.3-.64-.51-.53.49-.61-.11-1.23-3.09-3.33-5.96-6.7-9.4-9.7.05-.22.14-.13.3-.11-1.16-.77-2.01-1.65-3.09-2.35-.11-.39.02-.67.08-.89-.12.43-5.41-4.35-5.42-4.5h-.02Z" fill="#eb5e28" stroke-width="0"></path><path d="M53.64,30.53l.82.3c-.34,1.3-1.07.12-1.17,1.37,1.07.79-.66,1.96-.14,2.54-.09-.03-.28.54-.65.4.6.36-.01.64.05,1.05.14.18.22-.04.45-.1v.91c-.29.27-.7.25-.67-.12-.83,2.15-4.33,12.63-4.64,15.11.57-.17.43-1,1.28-1.08.26.75-.4.89-.02,1.29-1.21-.07-.65,1.32-1.92,1.48l.6.36-.48.21c-.08,2.96.15.73-.66,3.14-.28,1.46.42,2.37-.12,3.08.04-.12.52-.33.59.09-.59-.09.14,1.09-.48,1.12-.02.38-.41,1.53.47,1.35-.43.1-.88,1.1-1.04.38-.12.35-.33.65-.22.96l.34-.39c-.21,1.22-.98,1.71-.49,2.67l.42-.36c-.14.73-.25,1.34-1.09,1.41l-.03-.79c-.3,1.18-.45,1.91-.3,3.01l.12-.35c.42,1.46-.72,8.18-.07,9.6l.74-.37.23,1.13c.04-.12-1.8-1-1.58-1.04-.52,2.14-3.04,13.34-3.98,15.2-.54.71-.98-.11-1.08-.14-.04,1.02.52.59.25,1.39-.16.2-.46-.17-.5-.33-.02.38-.33.65-.05.76.34-.39,1.02,0,1.55-.07l-.35,1.04-.46-.17c-.08.23,1.11.95.58,1.91-.67,1.7-1.02,3.64-1.61,5.37-.27-.1-.34-.52-.4-.93-.08.23-.11.61-.36.77.61-.29.13.83.42.55.79,1.6-.7,2.98-.24,4.33,1,.38,16.92,7.18,18.14,7.51-.12.35-.24.7-.36.77.32-.01.63-.67.57-1.09l-.63-.24c0-.91.45-.1.62-.93.54.1.46.89.33,1.58.23-.59.77-1.09.26-1.49.38-.51.63.24,1.04-.38-.02-.53-.37-1.32.09-1.78l.09.03c.91-1.22-.25-2.3.63-3.4l.14.18c.42-.36.25-1.34.79-2.04-.17.2-.61.29-.54-.21.59-.83.41-1.53,1.01-2.09l-.35-.78c.96-3.15,3.6-15.89,4.38-19.11l.05.15c1.05-4.93,3.78-14.9,4.42-20.12.73-.64.89-1.74,1.25-2.51-.34.39-.66.14-.54-.21.73-2.46-.32-.26.14-2.82.29-3,3.82-13.87,4.95-16.3-.39-1.58.65-3.13.53-4.61l.14.18c.11-1.52,3.01-9.5,3.2-11.25l-.17.2c-.08-1.59.7-1.16,1.27-2.25-.89-.08-1.03-1.46-.97-1.96l.18.07c.05-.76-.25-2.59-.04-3.82l.46.17c-.23-1.13.48-2.93.62-3.66.63-1.58,2.12-3.88,2.1-6.23l1.71-1.05-.08-.24s-15.4-6.6-19.6-4.63l-.46-.17-.1.59c-.41.62.04,1.09-.41.91l.3-.92c-.32.65-.43.11-.63-.23-.12.27-.25.53-.46.73.14.18.22-.04.35-.13.07.41.36,1.04.02,1.43-.24.7-.76-.16-1.03.65-1.53,4.23-3.2,8.28-4.27,12.68-.22.04-.18-.07-.23-.22-.15,1.37-.54,2.52-.66,3.78-.29.28-.61.29-.83.34.43-.1-1.37,6.74-1.5,6.83l-.02.02Z" fill="#eb5e28" stroke-width="0"></path><path d="M82.61,42.82l.1.87c-1.26.27-.57-.9-1.7-.45-.21,1.29-1.97.27-2.24,1,0-.1-.59-.02-.63-.4-.04.68-.55.27-.88.51-.1.21.14.17.27.35l-.78.4c-.37-.14-.52-.51-.18-.65-2.21.21-12.73,1.71-14.99,2.51.4.43,1.05-.04,1.49.67-.52.57-.93.03-1.12.54-.47-1.11-1.41,0-2.12-1.08l-.04.7-.39-.34c-2.57,1.24-.55.46-2.99.79-1.37.38-1.85,1.42-2.68,1.25.12-.02.5.33.17.57-.17-.57-.87.61-1.17.07-.34.14-1.5.3-.95,1.01-.27-.35-1.33-.3-.79-.77-.35.04-.71,0-.91.23l.49.13c-1.14.35-1.89-.13-2.51.74l.49.23c-.68.2-1.25.37-1.68-.35l.66-.38c-1.15.26-1.84.45-2.71,1.05l.35-.04c-1.07,1.02-7.33,2.98-8.26,4.17l.64.5-.87.71c.12-.01.07-2.05.21-1.88-2.07.48-12.77,3.16-14.77,3.14-.84-.17-.34-.92-.35-1.02-.89.41-.27.73-1.09.84-.24-.07-.05-.48.05-.6-.34.14-.71,0-.67.29.48.13.45.91.74,1.36l-1.04.14-.05-.48c-.23.03-.32,1.41-1.38,1.36-1.75.14-3.57.68-5.3.93-.03-.29.29-.53.62-.77-.23.03-.57.17-.83.02.52.41-.65.48-.28.63-1.02,1.41-2.86.7-3.82,1.7.12,1.05,1.27,18.33,1.52,19.55-.35.04-.7.1-.83.01.15.27.86.27,1.18.03l-.08-.67c.78-.4.27.35,1.08.14.15.53-.57.8-1.21.99.6-.05,1.27.22,1.39-.42.6.11.08.67.79.77.45-.26.96-.91,1.58-.71v.1c1.46.28,1.87-1.24,3.2-.93l-.1.21c.49.23,1.25-.37,2.1-.2-.24-.07-.51-.41-.07-.58.96.16,1.5-.3,2.23-.02l.51-.66c3.12-.53,15.2-3.78,18.29-4.51l-.11.11c4.68-1.24,14.42-3.18,19.17-4.92.87.37,1.88.03,2.71.01-.49-.13-.41-.53-.07-.58,2.42-.43.09-.39,2.48-1.12,2.71-1.05,13.55-2.71,16.14-2.77,1.18-1.04,2.97-.8,4.18-1.55l-.1.21c1.35-.58,9.46-1.5,11.04-2.11l-.24-.07c1.33-.77,1.3.11,2.49.14-.33-.84.79-1.58,1.25-1.74l.02.2c.67-.29,2.11-1.37,3.25-1.72l.05.48c.87-.71,2.73-.87,3.41-1.05,1.63-.13,4.25.18,6.25-.87l1.65,1.07.17-.17s-1.11-16.71-4.63-19.6l-.05-.48-.54.17c-.72-.1-.91.51-.96.03l.92-.13c-.7,0-.28-.35-.08-.66-.29.01-.58,0-.83-.09-.1.21.14.17.26.26-.33.24-.74.78-1.22.66-.7.1-.2-.75-1.01-.64-4.29.5-8.5.79-12.74,1.77-.14-.17-.02-.2.09-.3-1.24.47-2.4.63-3.53,1.08-.37-.14-.52-.41-.65-.6.27.35-6.38,1.75-6.5,1.67h.01Z" fill="#eb5e28" stroke-width="0"></path></g></svg>