<?xml version="1.0" encoding="UTF-8" standalone="yes"?>
<svg viewBox="0 0 425.2 425.2" version="1.2" baseProfile="tiny-ps" xmlns="http://www.w3.org/2000/svg">
  <title>bimi-svg-tiny-12-ps</title>
  <path fill="none" stroke="#a0a0a0" stroke-linecap="round" stroke-linejoin="round" stroke-width="2" d="m143.01 218.25 2.08-1.4"/>
  <path fill="none" stroke="#a0a0a0" stroke-dasharray="0 0 4.89 4.89" stroke-linecap="round" stroke-linejoin="round" stroke-width="2" d="m149.14 214.13 87.24-58.54"/>
  <path fill="none" stroke="#a0a0a0" stroke-linecap="round" stroke-linejoin="round" stroke-width="2" d="m238.41 154.23 2.07-1.39M382.68 227.72l-1.41 2.06"/>
  <path fill="none" stroke="#a0a0a0" stroke-dasharray="0 0 4.77 4.77" stroke-linecap="round" stroke-linejoin="round" stroke-width="2" d="m378.58 233.72-52.41 76.8"/>
  <path fill="none" stroke="#a0a0a0" stroke-linecap="round" stroke-linejoin="round" stroke-width="2" d="m324.83 312.49-1.41 2.07M382.68 227.72l-2.16-1.26"/>
  <path fill="none" stroke="#a0a0a0" stroke-dasharray="0 0 5.23 5.23" stroke-linecap="round" stroke-linejoin="round" stroke-width="2" d="m376 223.82-33.87-19.76"/>
  <path fill="none" stroke="#a0a0a0" stroke-linecap="round" stroke-linejoin="round" stroke-width="2" d="m339.88 202.74-2.16-1.26M349.46 109.65l-2.26-1.07"/>
  <path fill="none" stroke="#a0a0a0" stroke-dasharray="0 0 5.17 5.17" stroke-linecap="round" stroke-linejoin="round" stroke-width="2" d="m342.53 106.37-91.09-43.1"/>
  <path fill="none" stroke="#a0a0a0" stroke-linecap="round" stroke-linejoin="round" stroke-width="2" d="m249.1 62.16-2.26-1.07M349.46 109.65l-.32 2.48"/>
  <path fill="none" stroke="#a0a0a0" stroke-dasharray="0 0 5.15 5.15" stroke-linecap="round" stroke-linejoin="round" stroke-width="2" d="m348.49 117.24-10.13 79.2"/>
  <path fill="none" stroke="#a0a0a0" stroke-linecap="round" stroke-linejoin="round" stroke-width="2" d="m338.03 199-.31 2.48M226.21 379.24l2.08-1.38"/>
  <path fill="none" stroke="#a0a0a0" stroke-dasharray="0 0 4.86 4.86" stroke-linecap="round" stroke-linejoin="round" stroke-width="2" d="m232.34 375.17 86.98-57.88"/>
  <path fill="none" stroke="#a0a0a0" stroke-linecap="round" stroke-linejoin="round" stroke-width="2" d="m321.34 315.94 2.08-1.38M139.58 105.86l2.3-.97"/>
  <path fill="none" stroke="#a0a0a0" stroke-dasharray="0 0 4.84 4.84" stroke-linecap="round" stroke-linejoin="round" stroke-width="2" d="m146.35 103.03 95.95-40.04"/>
  <path fill="none" stroke="#a0a0a0" stroke-linecap="round" stroke-linejoin="round" stroke-width="2" d="m244.53 62.06 2.31-.97M139.58 105.86l-2.37.81"/>
  <path fill="none" stroke="#a0a0a0" stroke-dasharray="0 0 5.01 5.01" stroke-linecap="round" stroke-linejoin="round" stroke-width="2" d="m132.47 108.3-73.45 25.31"/>
  <path fill="none" stroke="#a0a0a0" stroke-linecap="round" stroke-linejoin="round" stroke-width="2" d="m56.65 134.43-2.37.82M60.02 254.78l-.12-2.5"/>
  <path fill="none" stroke="#a0a0a0" stroke-dasharray="0 0 4.99 4.99" stroke-linecap="round" stroke-linejoin="round" stroke-width="2" d="m59.66 247.3-5.14-107.07"/>
  <path fill="none" stroke="#a0a0a0" stroke-linecap="round" stroke-linejoin="round" stroke-width="2" d="m54.4 137.74-.12-2.49M240.48 152.84l.17-2.5"/>
  <path fill="none" stroke="#a0a0a0" stroke-dasharray="0 0 5.12 5.12" stroke-linecap="round" stroke-linejoin="round" stroke-width="2" d="m241.01 145.24 5.48-79.1"/>
  <path fill="none" stroke="#a0a0a0" stroke-linecap="round" stroke-linejoin="round" stroke-width="2" d="m246.67 63.59.17-2.5M240.48 152.84l2.24 1.11"/>
  <path fill="none" stroke="#a0a0a0" stroke-dasharray="0 0 4.94 4.94" stroke-linecap="round" stroke-linejoin="round" stroke-width="2" d="m247.13 156.16 86.14 43.09"/>
  <path fill="none" stroke="#a0a0a0" stroke-linecap="round" stroke-linejoin="round" stroke-width="2" d="m335.48 200.36 2.24 1.12M240.48 152.84l-2.26-1.06"/>
  <path fill="none" stroke="#a0a0a0" stroke-dasharray="0 0 5.06 5.06" stroke-linecap="round" stroke-linejoin="round" stroke-width="2" d="m233.63 149.64-89.49-41.66"/>
  <path fill="none" stroke="#a0a0a0" stroke-linecap="round" stroke-linejoin="round" stroke-width="2" d="m141.84 106.91-2.26-1.05M153.71 327.75l2.04 1.45"/>
  <path fill="none" stroke="#a0a0a0" stroke-dasharray="0 0 4.94 4.94" stroke-linecap="round" stroke-linejoin="round" stroke-width="2" d="m159.77 332.06 62.39 44.31"/>
  <path fill="none" stroke="#a0a0a0" stroke-linecap="round" stroke-linejoin="round" stroke-width="2" d="m224.17 377.79 2.04 1.45M153.71 327.75l-1.97-1.54"/>
  <path fill="none" stroke="#a0a0a0" stroke-dasharray="0 0 4.95 4.95" stroke-linecap="round" stroke-linejoin="round" stroke-width="2" d="m147.83 323.18-83.89-65.34"/>
  <path fill="none" stroke="#a0a0a0" stroke-linecap="round" stroke-linejoin="round" stroke-width="2" d="m61.99 256.32-1.97-1.54M248.69 268.77l2.13 1.31"/>
  <path fill="none" stroke="#a0a0a0" stroke-dasharray="0 0 4.86 4.86" stroke-linecap="round" stroke-linejoin="round" stroke-width="2" d="m254.97 272.62 64.25 39.36"/>
  <path fill="none" stroke="#a0a0a0" stroke-linecap="round" stroke-linejoin="round" stroke-width="2" d="m321.29 313.25 2.13 1.31M248.69 268.77l1.99-1.51"/>
  <path fill="none" stroke="#a0a0a0" stroke-dasharray="0 0 5.08 5.08" stroke-linecap="round" stroke-linejoin="round" stroke-width="2" d="m254.73 264.2 78.97-59.68"/>
  <path fill="none" stroke="#a0a0a0" stroke-linecap="round" stroke-linejoin="round" stroke-width="2" d="m335.72 202.99 2-1.51M248.69 268.77l-.18-2.49"/>
  <path fill="none" stroke="#a0a0a0" stroke-dasharray="0 0 4.84 4.84" stroke-linecap="round" stroke-linejoin="round" stroke-width="2" d="m248.17 261.45-7.34-103.71"/>
  <path fill="none" stroke="#a0a0a0" stroke-linecap="round" stroke-linejoin="round" stroke-width="2" d="m240.66 155.33-.18-2.49M248.69 268.77l-2.12 1.32"/>
  <path fill="none" stroke="#a0a0a0" stroke-dasharray="0 0 5.09 5.09" stroke-linecap="round" stroke-linejoin="round" stroke-width="2" d="m242.25 272.77-84.26 52.32"/>
  <path fill="none" stroke="#a0a0a0" stroke-linecap="round" stroke-linejoin="round" stroke-width="2" d="m155.83 326.43-2.12 1.32M143.01 218.25l-.08-2.5"/>
  <path fill="none" stroke="#a0a0a0" stroke-dasharray="0 0 5.12 5.12" stroke-linecap="round" stroke-linejoin="round" stroke-width="2" d="m142.78 210.63-3.05-99.72"/>
  <path fill="none" stroke="#a0a0a0" stroke-linecap="round" stroke-linejoin="round" stroke-width="2" d="m139.65 108.36-.07-2.5M143.01 218.25l-2.29 1"/>
  <path fill="none" stroke="#a0a0a0" stroke-dasharray="0 0 5.04 5.04" stroke-linecap="round" stroke-linejoin="round" stroke-width="2" d="m136.11 221.28-71.5 31.48"/>
  <path fill="none" stroke="#a0a0a0" stroke-linecap="round" stroke-linejoin="round" stroke-width="2" d="m62.3 253.77-2.28 1.01M143.01 218.25l.24 2.49"/>
  <path fill="none" stroke="#a0a0a0" stroke-dasharray="0 0 5 5" stroke-linecap="round" stroke-linejoin="round" stroke-width="2" d="m143.74 225.71 9.48 97.06"/>
  <path fill="none" stroke="#a0a0a0" stroke-linecap="round" stroke-linejoin="round" stroke-width="2" d="m153.47 325.26.24 2.49M143.01 218.25l2.26 1.08"/>
  <path fill="none" stroke="#a0a0a0" stroke-dasharray="0 0 4.88 4.88" stroke-linecap="round" stroke-linejoin="round" stroke-width="2" d="m149.66 221.43 94.57 45.21"/>
  <path fill="none" stroke="#a0a0a0" stroke-linecap="round" stroke-linejoin="round" stroke-width="2" d="m246.43 267.69 2.26 1.08M246.84 61.09l-2.47-.37"/>
  <path fill="none" stroke="#a0a0a0" stroke-dasharray="0 0 5.13 5.13" stroke-linecap="round" stroke-linejoin="round" stroke-width="2" d="M239.3 59.97 150.55 46.7"/>
  <path fill="none" stroke="#a0a0a0" stroke-linecap="round" stroke-linejoin="round" stroke-width="2" d="m148.01 46.32-2.47-.37M337.72 201.48l-.32 2.48"/>
  <path fill="none" stroke="#a0a0a0" stroke-dasharray="0 0 5.19 5.19" stroke-linecap="round" stroke-linejoin="round" stroke-width="2" d="M336.75 209.11 324.06 309.5"/>
  <path fill="none" stroke="#a0a0a0" stroke-linecap="round" stroke-linejoin="round" stroke-width="2" d="m323.74 312.08-.32 2.48M321.63 329.83l.29-2.49"/>
  <path fill="none" stroke="#a0a0a0" stroke-dasharray="0 0 3.46 3.46" stroke-linecap="round" stroke-linejoin="round" stroke-width="2" d="m322.33 323.91.6-5.15"/>
  <path fill="none" stroke="#a0a0a0" stroke-linecap="round" stroke-linejoin="round" stroke-width="2" d="m323.13 317.04.29-2.48M266.27 46.59l-2 1.49"/>
  <path fill="none" stroke="#a0a0a0" stroke-dasharray="0 0 6.42 6.42" stroke-linecap="round" stroke-linejoin="round" stroke-width="2" d="m259.13 51.92-7.72 5.76"/>
  <path fill="none" stroke="#a0a0a0" stroke-linecap="round" stroke-linejoin="round" stroke-width="2" d="m248.84 59.6-2 1.49M139.58 105.86l.25-2.49"/>
  <path fill="none" stroke="#a0a0a0" stroke-dasharray="0 0 5.02 5.02" stroke-linecap="round" stroke-linejoin="round" stroke-width="2" d="m140.32 98.38 4.72-47.44"/>
  <path fill="none" stroke="#a0a0a0" stroke-linecap="round" stroke-linejoin="round" stroke-width="2" d="m145.29 48.44.25-2.49M101.69 346.67l-1.04-2.27"/>
  <path fill="none" stroke="#a0a0a0" stroke-dasharray="0 0 5.05 5.05" stroke-linecap="round" stroke-linejoin="round" stroke-width="2" d="m98.57 339.8-36.48-80.44"/>
  <path fill="none" stroke="#a0a0a0" stroke-linecap="round" stroke-linejoin="round" stroke-width="2" d="m61.05 257.06-1.03-2.28M101.69 346.67l2.35-.85"/>
  <path fill="none" stroke="#a0a0a0" stroke-dasharray="0 0 4.58 4.58" stroke-linecap="round" stroke-linejoin="round" stroke-width="2" d="m108.34 344.25 40.87-14.86"/>
  <path fill="none" stroke="#a0a0a0" stroke-linecap="round" stroke-linejoin="round" stroke-width="2" d="m151.36 328.6 2.35-.85M42.52 235.89l1.7 1.84"/>
  <path fill="none" stroke="#a0a0a0" stroke-dasharray="0 0 4.15 4.15" stroke-linecap="round" stroke-linejoin="round" stroke-width="2" d="m47.04 240.77 9.87 10.66"/>
  <path fill="none" stroke="#a0a0a0" stroke-linecap="round" stroke-linejoin="round" stroke-width="2" d="m58.32 252.95 1.7 1.83"/>
  <path fill="none" stroke="#000" stroke-linecap="round" stroke-linejoin="round" stroke-width="4" d="m221.21 115.78 124.23 26.69M221.21 115.78l-128.88-2.56M145.54 45.95l-53.21 67.27M133.99 231.4l59.76 117.59M133.99 231.4l-91.47 4.49M42.52 235.89l11.76-100.64M133.99 231.4l144.39 15.55M133.99 231.4 92.33 113.22M221.21 115.78 133.99 231.4M42.52 235.89l59.17 110.78M345.44 142.47l-79.17-95.88M193.75 348.99l32.46 30.25M193.75 348.99l127.88-19.16M193.75 348.99l-92.06-2.32M278.38 246.95l43.25 82.88M278.38 246.95l67.06-104.48M278.38 246.95l-84.63 102.04M321.63 329.83l61.05-102.11M349.46 109.65l33.22 118.07M145.54 45.95l120.73.64M42.52 235.89l49.81-122.67M349.46 109.65l-83.19-63.06M345.44 142.47l37.24 85.25M345.44 142.47l4.02-32.82M226.21 379.24l95.42-49.41M54.28 135.25l91.26-89.3M54.28 135.25l38.05-22.03M101.69 346.67l124.52 32.57M221.21 115.78l45.06-69.19M221.21 115.78l57.17 131.17"/>
</svg>